<svg xmlns="http://www.w3.org/2000/svg" width="430" height="430" style="width:100%;height:100%;transform:translate3d(0,0,0);content-visibility:visible" viewBox="0 0 430 430"><defs><clipPath id="c"><path d="M0 0h430v430H0z"/></clipPath><clipPath id="d"><path d="M0 0h430v430H0z"/></clipPath><clipPath id="b"><path d="M0 0h430v430H0z"/></clipPath><filter id="f" width="300%" height="300%" x="-100%" y="-100%"><feGaussianBlur result="filter_result_0" stdDeviation="52.5 52.5"/></filter><mask id="e" mask-type="alpha"><use xmlns:ns1="http://www.w3.org/1999/xlink" ns1:href="#a"/></mask><g id="a" clip-path="url(#b)" style="display:block"><g style="display:block"><path fill-opacity="0" stroke="#121331" stroke-linecap="round" stroke-linejoin="round" stroke-width="6" d="m305.09 241.229 21.643 43.853 48.394 7.032-35.019 34.134 8.267 48.199-43.285-22.756-43.285 22.756 8.267-48.199-35.019-34.134 48.394-7.032 21.643-43.853z" class="primary"/><path fill="red" d="m305.09 241.229 21.643 43.853 48.394 7.032-35.019 34.134 8.267 48.199-43.285-22.756-43.285 22.756 8.267-48.199-35.019-34.134 48.394-7.032 21.643-43.853z"/></g><g style="display:block"><path fill-opacity="0" stroke="#08A88A" stroke-linecap="round" stroke-linejoin="round" stroke-width="6" d="m306.903 120.697 22.387 12.243-22.387 12.243-12.243 22.387-12.243-22.387-22.387-12.243 22.387-12.243L294.66 98.31l12.243 22.387z" class="secondary"/><path fill="red" d="m306.903 120.697 22.387 12.243-22.387 12.243-12.243 22.387-12.243-22.387-22.387-12.243 22.387-12.243L294.66 98.31l12.243 22.387z"/></g><g style="display:block"><path fill-opacity="0" stroke="#08A88A" stroke-linecap="round" stroke-linejoin="round" stroke-width="6" d="m147.525 279.873 22.387 12.243-22.387 12.243-12.243 22.387-12.243-22.387-22.387-12.243 22.387-12.243 12.243-22.387 12.243 22.387z" class="secondary"/><path fill="red" d="m147.525 279.873 22.387 12.243-22.387 12.243-12.243 22.387-12.243-22.387-22.387-12.243 22.387-12.243 12.243-22.387 12.243 22.387z"/></g><g fill-opacity="0" stroke-dasharray="100 160" stroke-linecap="round" stroke-linejoin="round" stroke-width="12" style="display:block"><path stroke="#08A88A" stroke-dashoffset="-3500" d="m193.595 271.523-141.69-142.69" class="secondary"/><path stroke="#121331" stroke-dashoffset="-3630" d="m193.595 271.523-141.69-142.69" class="primary"/></g><g fill-opacity="0" stroke-dasharray="100 160" stroke-linecap="round" stroke-linejoin="round" stroke-width="12" style="display:block"><path stroke="#08A88A" stroke-dashoffset="-3456" d="m283.595 203.523-141.69-142.69" class="secondary"/><path stroke="#121331" stroke-dashoffset="-3586" d="m283.595 203.523-141.69-142.69" class="primary"/></g><path fill-opacity="0" stroke="#121331" stroke-dasharray="54 100" stroke-dashoffset="-3624" stroke-linecap="round" stroke-linejoin="round" stroke-width="12" d="m76.368 77.217-96.105-97.565" class="primary" style="display:block" transform="translate(187.66 345.44)"/><path fill-opacity="0" stroke="#121331" stroke-dasharray="178 26" stroke-dashoffset="-3566" stroke-linecap="round" stroke-linejoin="round" stroke-width="12" d="m-85.709-85.206-45.386-46.784" class="primary" style="display:block" transform="translate(187.66 345.44)"/><path fill-opacity="0" stroke="#121331" stroke-dasharray="54 100" stroke-dashoffset="-3624" stroke-linecap="round" stroke-linejoin="round" stroke-width="12" d="m76.368 77.217-96.105-97.565" class="primary" style="display:block" transform="translate(347.66 187.44)"/><path fill-opacity="0" stroke="#121331" stroke-dasharray="178 26" stroke-dashoffset="-3524" stroke-linecap="round" stroke-linejoin="round" stroke-width="12" d="m-85.709-85.206-45.386-46.784" class="primary" style="display:block" transform="translate(347.66 187.44)"/><path fill-opacity="0" stroke="#121331" stroke-dasharray="339 30" stroke-dashoffset="3944" stroke-linecap="round" stroke-linejoin="round" stroke-width="12" d="M-142.502-143.044 61.273 61.273" class="primary" style="display:block" transform="translate(198.09 196.838)"/></g></defs><g clip-path="url(#c)"><g clip-path="url(#d)" mask="url(#e)" style="display:block"><g filter="url(#f)" transform="rotate(-94.01 224.758 -31.542) scale(2.4)"><g class="design"><path fill="#E8392F" d="M0-250c137.975 0 250 112.025 250 250S137.975 250 0 250-250 137.975-250 0-137.975-250 0-250z" class="primary"/></g><g class="design"><path fill="#5FE0EB" d="M113.242-295.384c97.478 0 176.5 79.022 176.5 176.5s-79.022 176.5-176.5 176.5c-43.948 0-74.396-34.057-105.29-60.631-37.631-32.369-71.21-62.338-71.21-115.869 0-97.478 79.022-176.5 176.5-176.5z" class="secondary"/></g></g></g></g></svg>