<svg xmlns="http://www.w3.org/2000/svg" width="430" height="430" style="width:100%;height:100%;transform:translate3d(0,0,0);content-visibility:visible" viewBox="0 0 430 430"><defs><clipPath id="i"><path d="M0 0h430v430H0z"/></clipPath><clipPath id="s"><path d="M0 0h430v430H0z"/></clipPath><clipPath id="e"><path d="M0 0h430v430H0z"/></clipPath><clipPath id="p"><path d="M0 0h430v430H0z"/></clipPath><clipPath id="f"><path d="M0 0h430v430H0z"/></clipPath><clipPath id="m"><path d="M0 0h430v430H0z"/></clipPath><clipPath id="g"><path d="M0 0h430v430H0z"/></clipPath><clipPath id="j"><path d="M0 0h430v430H0z"/></clipPath><clipPath id="h"><path d="M0 0h430v430H0z"/></clipPath><filter id="t" width="300%" height="300%" x="-100%" y="-100%"><feGaussianBlur result="filter_result_0"/></filter><filter id="r" width="300%" height="300%" x="-100%" y="-100%"><feGaussianBlur result="filter_result_0" stdDeviation="52.5 52.5"/></filter><filter id="n" width="300%" height="300%" x="-100%" y="-100%"><feGaussianBlur result="filter_result_0"/></filter><filter id="k" width="300%" height="300%" x="-100%" y="-100%"><feGaussianBlur result="filter_result_0"/></filter><mask id="u" mask-type="alpha"><use xmlns:ns1="http://www.w3.org/1999/xlink" ns1:href="#a"/></mask><mask id="q" mask-type="alpha"><use xmlns:ns2="http://www.w3.org/1999/xlink" ns2:href="#b"/></mask><mask id="o" mask-type="alpha"><use xmlns:ns3="http://www.w3.org/1999/xlink" ns3:href="#c"/></mask><mask id="l" mask-type="alpha"><use xmlns:ns4="http://www.w3.org/1999/xlink" ns4:href="#d"/></mask><g id="a" fill-opacity="0" stroke-linecap="round" stroke-linejoin="round" clip-path="url(#e)" style="display:none"><path class="primary" style="display:none"/><path class="primary" style="display:none"/><path class="primary" style="display:none"/><path class="primary" style="display:none"/></g><g id="b" fill-opacity="0" stroke="#121331" stroke-linecap="round" stroke-linejoin="round" stroke-width="12" clip-path="url(#f)" style="display:block"><path d="M0 0" class="primary" style="display:block" transform="rotate(180 153.75 68.75)"/><path d="M0 0" class="primary" style="display:block" transform="rotate(180 163.75 131.25)"/><path d="M0 0" class="primary" style="display:block" transform="rotate(180 61.25 68.75)"/><path d="M0 0" class="primary" style="display:block" transform="rotate(180 71.25 132.5)"/><path d="M-72.5-42.5v85c0 16.569 13.431 30 30 30h85c16.569 0 30-13.431 30-30v-85c0-16.569-13.431-30-30-30h-85c-16.569 0-30 13.431-30 30z" class="primary" style="display:block" transform="rotate(180 153.75 68.75)"/><path d="M52.5-122.5c-64.929 37.102-105 106.152-105 180.934V122.5" class="primary" style="display:block" transform="rotate(180 163.75 131.25)"/><path d="M-72.5-42.5v85c0 16.569 13.431 30 30 30h85c16.569 0 30-13.431 30-30v-85c0-16.569-13.431-30-30-30h-85c-16.569 0-30 13.431-30 30z" class="primary" style="display:block" transform="rotate(180 61.25 68.75)"/><path d="M52.5-120c-64.929 37.102-105 106.152-105 180.934V120" class="primary" style="display:block" transform="rotate(180 71.25 132.5)"/></g><g id="c" fill-opacity="0" stroke-linecap="round" stroke-linejoin="round" clip-path="url(#g)" style="display:none"><path class="primary" style="display:none"/><path class="primary" style="display:none"/><path class="primary" style="display:none"/><path class="primary" style="display:none"/></g><g id="d" fill-opacity="0" stroke-linecap="round" stroke-linejoin="round" clip-path="url(#h)" style="display:none"><path class="primary" style="display:none"/><path class="primary" style="display:none"/><path class="primary" style="display:none"/><path class="primary" style="display:none"/><path class="primary" style="display:none"/><path class="primary" style="display:none"/><path class="primary" style="display:none"/><path class="primary" style="display:none"/></g></defs><g clip-path="url(#i)"><g clip-path="url(#j)" filter="url(#k)" mask="url(#l)" style="display:none"><g class="design"><path class="primary"/></g><g class="design"><path class="secondary"/></g></g><g clip-path="url(#m)" filter="url(#n)" mask="url(#o)" style="display:none"><g class="design"><path class="primary"/></g><g class="design"><path class="secondary"/></g></g><g clip-path="url(#p)" mask="url(#q)" style="display:block"><g filter="url(#r)" transform="rotate(-132 173.932 54.903) scale(2.4)"><g class="design"><path fill="#E8392F" d="M0-250c137.975 0 250 112.025 250 250S137.975 250 0 250-250 137.975-250 0-137.975-250 0-250z" class="primary"/></g><g class="design"><path fill="#5FE0EB" d="M113.242-295.384c97.478 0 176.5 79.022 176.5 176.5s-79.022 176.5-176.5 176.5c-43.948 0-74.396-34.057-105.29-60.631-37.631-32.369-71.21-62.338-71.21-115.869 0-97.478 79.022-176.5 176.5-176.5z" class="secondary"/></g></g></g><g clip-path="url(#s)" filter="url(#t)" mask="url(#u)" style="display:none"><g class="design"><path class="primary"/></g><g class="design"><path class="secondary"/></g></g></g></svg>